<?xml version="1.0" standalone="no"?>
<!DOCTYPE svg PUBLIC "-//W3C//DTD SVG 20010904//EN"
 "http://www.w3.org/TR/2001/REC-SVG-20010904/DTD/svg10.dtd">
<svg version="1.0" xmlns="http://www.w3.org/2000/svg"
 width="640.000000pt" height="640.000000pt" viewBox="0 0 640.000000 640.000000"
 preserveAspectRatio="xMidYMid meet">

   <defs>
    <style type="text/css"><![CDATA[
      .background path { fill: #0e2b89; }
      .labels text { fill: #FFFFFF; font-family: Arial, sans-serif; }
    ]]></style>
  </defs>

<g class="background" transform="translate(0,640) scale(.1,-.1)" stroke="none">
<path d="M0 3200 l0 -3200 3200 0 3200 0 0 3200 0 3200 -3200 0 -3200 0 0
-3200z m3614 1589 c67 -11 140 -29 163 -39 78 -35 111 -93 112 -201 2 -155
-71 -262 -187 -276 -42 -4 -299 31 -312 43 -4 5 10 97 51 334 28 160 28 160
41 160 6 0 65 -9 132 -21z m-662 -229 c72 -118 131 -221 132 -229 1 -10 -19
-18 -64 -27 -89 -17 -84 -18 -103 21 -19 39 -20 39 -103 24 -93 -16 -93 -16
-96 -62 l-3 -42 -73 -14 c-40 -7 -75 -11 -78 -8 -3 3 13 115 36 249 23 134 42
251 43 260 1 12 13 20 37 24 19 3 51 10 70 14 19 5 43 8 53 7 13 -1 60 -71
149 -217z m1358 31 c100 -44 184 -82 187 -85 9 -8 -29 -96 -41 -96 -7 0 -62
22 -123 49 l-112 50 -11 -35 c-7 -20 -10 -37 -8 -39 1 -2 46 -22 98 -45 52
-23 98 -45 102 -49 11 -10 -22 -91 -37 -91 -7 0 -57 20 -111 44 -108 48 -104
48 -131 -16 l-12 -26 120 -53 c65 -28 119 -57 119 -63 0 -6 -9 -31 -20 -55
-15 -32 -24 -42 -36 -37 -22 8 -368 159 -372 162 -2 1 33 87 79 191 45 103 90
207 100 231 10 23 20 42 23 42 3 0 87 -36 186 -79z m-1907 -158 c47 -120 89
-225 92 -234 5 -13 -9 -22 -60 -43 -36 -14 -69 -26 -74 -26 -10 0 -196 458
-189 465 7 8 122 54 134 55 6 0 49 -98 97 -217z m-416 27 c14 0 73 -49 73 -60
0 -5 -26 -27 -57 -49 -51 -36 -59 -39 -73 -26 -36 32 -110 5 -110 -39 0 -35
20 -37 106 -10 117 37 153 40 202 15 72 -37 102 -130 67 -205 -38 -80 -170
-166 -254 -166 -35 0 -59 8 -94 30 -26 16 -47 35 -47 42 0 18 108 91 123 84 7
-4 23 -13 36 -20 43 -25 116 18 109 65 -6 41 -30 45 -117 20 -111 -32 -170
-32 -213 1 -86 66 -61 189 53 265 51 33 138 64 164 58 11 -3 25 -5 32 -5z
m3151 -455 c33 -47 41 -129 18 -189 -21 -54 -107 -146 -164 -175 -59 -30 -125
-28 -184 7 -47 27 -228 192 -228 207 0 4 46 56 103 114 57 58 134 138 171 178
l69 72 95 -89 c52 -49 106 -105 120 -125z m-3618 120 l34 -35 -92 -93 -92 -93
28 -27 28 -27 84 85 84 85 38 -37 38 -37 -80 -81 c-44 -44 -80 -85 -80 -91 0
-6 14 -23 30 -39 l30 -29 95 94 95 95 40 -40 40 -40 -148 -152 -147 -153 -179
174 c-98 95 -177 178 -175 184 5 14 280 292 289 292 3 0 21 -16 40 -35z m1496
-344 c17 -10 34 -28 37 -40 4 -18 1 -21 -23 -21 -16 0 -33 7 -38 16 -12 21
-76 15 -80 -8 -2 -11 7 -18 30 -23 104 -23 139 -59 114 -120 -11 -26 -23 -36
-53 -44 -47 -13 -49 -13 -93 -1 -31 8 -70 50 -70 74 0 16 56 4 68 -14 8 -14
23 -20 46 -20 41 0 65 23 46 45 -7 8 -18 15 -24 15 -28 0 -84 22 -104 40 -28
27 -28 61 1 87 41 38 95 43 143 14z m-868 -38 c6 -27 16 -61 22 -78 12 -30 12
-30 35 45 l22 75 42 3 41 3 0 -125 0 -126 -25 0 c-24 0 -24 2 -27 88 l-3 87
-24 -87 c-22 -83 -25 -88 -51 -88 -25 0 -28 5 -44 68 -29 112 -35 115 -35 20
-1 -87 -1 -88 -26 -88 l-25 0 0 125 0 125 43 0 44 0 11 -47z m280 -75 l-3
-123 -27 -3 -28 -3 0 125 0 126 30 0 31 0 -3 -122z m157 45 l50 -77 3 77 c3
74 4 77 27 77 l25 0 0 -125 0 -125 -27 0 c-24 0 -36 12 -78 77 l-50 77 -3 -77
c-3 -74 -4 -77 -27 -77 l-25 0 0 125 0 125 28 0 c23 0 35 -12 77 -77z m218 65
c2 -7 4 -62 3 -123 l-2 -110 -27 -3 -27 -3 0 125 0 126 24 0 c13 0 26 -6 29
-12z m507 -8 c0 -17 -7 -20 -40 -20 l-40 0 0 -105 0 -105 -30 0 -30 0 0 105 0
105 -40 0 c-33 0 -40 3 -40 20 0 19 7 20 110 20 103 0 110 -1 110 -20z m240 0
c0 -18 -7 -20 -75 -20 -73 0 -75 -1 -75 -25 0 -23 3 -24 68 -27 59 -3 67 -5
67 -23 0 -18 -8 -20 -67 -23 l-68 -3 0 -34 0 -35 75 0 c68 0 75 -2 75 -20 0
-19 -7 -20 -105 -20 l-105 0 0 125 0 125 105 0 c98 0 105 -1 105 -20z m256 -4
c27 -38 6 -106 -32 -106 -8 0 3 -22 26 -52 22 -29 40 -56 40 -60 0 -5 -15 -8
-34 -8 -28 0 -38 6 -55 33 -30 49 -60 77 -81 77 -17 0 -20 -7 -20 -55 0 -52
-1 -55 -25 -55 l-25 0 0 126 0 126 96 -4 c81 -2 98 -6 110 -22z m124 -101 l0
-125 -30 0 -30 0 0 125 0 125 30 0 30 0 0 -125z m240 15 c67 -151 64 -140 29
-140 -25 0 -33 6 -42 30 -11 28 -15 30 -65 30 -50 0 -54 -2 -63 -30 -9 -24
-17 -30 -40 -30 -16 0 -29 4 -29 8 0 5 15 44 34 88 19 43 41 96 50 117 14 34
19 38 47 35 31 -3 35 -9 79 -108z m140 5 l0 -105 70 0 c63 0 70 -2 70 -20 0
-19 -7 -20 -95 -20 l-95 0 0 125 0 125 25 0 25 0 0 -105z m1127 -32 c9 -18 15
-34 13 -36 -3 -2 -94 -68 -204 -146 l-198 -142 -44 61 c-24 33 -44 63 -43 67
0 5 91 72 202 151 l202 143 27 -33 c15 -18 35 -47 45 -65z m-3987 -168 c25
-16 40 -32 36 -40 -9 -24 -198 -325 -203 -325 -13 0 -423 256 -423 263 0 14
72 127 80 127 4 0 77 -43 161 -95 84 -52 156 -95 159 -95 3 0 32 45 65 100 34
56 65 98 72 96 6 -3 30 -17 53 -31z m4115 -119 c81 -37 142 -136 152 -245 13
-138 -102 -253 -269 -268 -117 -11 -211 68 -253 212 -41 139 23 250 176 305
73 26 133 25 194 -4z m-2401 0 c49 -20 66 -51 66 -118 0 -46 -5 -62 -24 -85
-22 -26 -31 -28 -111 -33 -48 -3 -89 -3 -91 -1 -7 7 -4 237 3 244 12 12 123 7
157 -7z m324 -13 c3 -22 0 -23 -72 -23 -74 0 -76 -1 -76 -25 0 -24 2 -25 70
-25 63 0 70 -2 70 -20 0 -18 -7 -20 -70 -20 l-70 0 0 -35 0 -35 75 0 c68 0 75
-2 75 -20 0 -11 -7 -20 -15 -21 -8 0 -42 0 -75 0 -33 0 -73 0 -90 0 l-30 1 0
118 c0 65 3 122 7 126 4 4 50 5 103 4 90 -3 95 -4 98 -25z m-2608 -235 c0 -65
-14 -128 -27 -128 -8 0 -28 -13 -44 -29 -34 -34 -40 -91 -13 -129 21 -30 84
-61 139 -69 88 -12 135 33 135 130 0 50 -2 55 -24 59 -23 5 -26 0 -37 -44 -14
-53 -20 -55 -89 -25 l-28 12 33 109 c19 59 36 111 39 113 2 3 50 -9 105 -26
95 -30 100 -33 111 -66 34 -102 -3 -275 -74 -353 -105 -116 -351 -70 -428 81
-17 34 -20 54 -16 116 10 155 90 269 191 271 21 0 27 -5 27 -22z m1323 -245
c-1 -43 -2 -90 -3 -105 0 -43 -32 -68 -85 -68 -50 0 -85 25 -85 60 0 15 7 20
25 20 14 0 29 -8 35 -20 6 -11 17 -20 25 -20 25 0 35 36 35 124 0 80 1 85 23
88 12 2 24 3 27 2 3 -2 5 -38 3 -81z m476 72 c26 -13 41 -33 41 -56 0 -5 -13
-9 -30 -9 -16 0 -30 4 -30 10 0 16 -38 31 -65 24 -26 -6 -34 -32 -12 -39 6 -2
32 -9 56 -15 50 -13 91 -49 91 -80 0 -12 -13 -35 -29 -51 -25 -25 -37 -29 -84
-29 -59 0 -100 22 -110 60 -9 33 35 37 66 6 28 -28 47 -32 78 -16 35 19 21 38
-45 60 -85 28 -106 56 -83 106 19 43 101 58 156 29z m537 5 c31 -11 58 -45 49
-60 -10 -17 -44 -11 -65 10 -25 25 -51 25 -80 2 -28 -23 -31 -103 -4 -133 25
-27 68 -24 91 6 13 18 24 23 41 19 44 -12 12 -68 -49 -84 -60 -16 -121 5 -145
52 -17 32 -19 111 -3 139 26 49 102 71 165 49z m434 -121 l0 -130 -27 3 -28 3
-1 122 -1 122 26 4 c14 2 27 5 29 6 1 0 2 -58 2 -130z m229 107 c11 -10 21
-26 24 -37 4 -15 0 -19 -22 -19 -14 0 -34 9 -44 20 -19 23 -45 26 -71 7 -24
-18 -8 -30 66 -51 62 -18 78 -35 78 -85 0 -45 -39 -71 -107 -71 -47 0 -59 4
-84 29 -34 35 -36 47 -8 56 14 5 27 -1 44 -19 27 -30 66 -34 90 -10 22 22 6
39 -51 53 -48 12 -94 49 -94 76 0 26 19 55 43 65 33 14 114 5 136 -14z m501 9
c45 -23 60 -53 60 -117 0 -49 -4 -62 -28 -89 -24 -27 -37 -33 -84 -37 -94 -7
-148 39 -148 128 0 81 49 129 133 130 21 0 51 -7 67 -15z m-1910 -15 c0 -18
-7 -20 -75 -20 -73 0 -75 -1 -75 -25 0 -24 2 -25 70 -25 63 0 70 -2 70 -20 0
-18 -7 -20 -70 -20 l-70 0 0 -35 0 -35 75 0 c74 0 75 0 75 -25 l0 -26 -102 3
-103 3 -3 123 -3 122 106 0 c98 0 105 -1 105 -20z m360 -69 c0 -112 22 -142
81 -111 17 9 19 22 19 105 l0 95 30 0 30 0 0 -100 c0 -94 -2 -103 -25 -125
-35 -35 -121 -36 -162 -1 -27 23 -28 29 -31 125 l-4 101 31 0 31 0 0 -89z
m700 69 c11 -11 20 -31 20 -45 0 -29 -32 -65 -57 -65 -17 -1 -17 -1 -1 -11 23
-13 79 -95 71 -103 -4 -3 -18 -6 -33 -6 -21 0 -34 10 -56 43 -34 51 -52 67
-76 67 -15 0 -18 -9 -18 -56 0 -54 0 -55 -27 -52 l-28 3 -3 123 -3 122 96 0
c82 0 98 -3 115 -20z m630 0 c0 -17 -7 -20 -40 -20 l-39 0 -3 -102 -3 -103
-27 -3 -28 -3 0 105 0 106 -40 0 c-33 0 -40 3 -40 20 0 19 7 20 110 20 103 0
110 -1 110 -20z m1635 -189 c40 -23 71 -81 85 -159 15 -89 5 -147 -34 -188
-17 -18 -43 -36 -57 -39 -24 -6 -26 -4 -40 64 l-15 70 24 18 c43 32 29 113
-19 113 -20 0 -23 -13 -34 -130 -11 -114 -46 -169 -120 -190 -83 -23 -169 30
-202 123 -25 74 -25 212 1 250 23 34 104 83 116 71 4 -5 14 -38 22 -74 l14
-65 -30 -20 c-65 -43 -33 -171 33 -135 24 12 28 25 36 115 16 170 104 241 220
176z m-2252 -200 c19 -1 67 -44 67 -59 0 -6 -12 -13 -26 -16 -20 -5 -30 -2
-41 14 -17 24 -65 27 -87 4 -38 -38 -29 -118 16 -143 23 -13 30 -13 52 -1 14
7 26 19 26 27 0 14 18 17 44 7 44 -17 -12 -74 -80 -82 -34 -3 -56 0 -80 13
-58 31 -78 124 -41 187 15 25 85 58 112 53 11 -2 28 -4 38 -4z m409 -7 c9 -3
29 -19 43 -35 19 -24 25 -42 25 -81 0 -64 -23 -103 -72 -123 -48 -19 -68 -19
-117 1 -51 20 -75 67 -69 136 9 94 81 132 190 102z m-2212 -119 l0 -125 -27 0
-28 0 0 125 0 125 28 0 27 0 0 -125z m165 43 l55 -83 0 83 c0 81 0 82 25 82
l25 0 0 -125 0 -125 -29 0 c-24 0 -35 11 -80 78 l-51 77 0 -77 0 -78 -30 0
-30 0 0 125 0 125 30 0 c26 0 36 -10 85 -82z m365 62 c0 -17 -7 -20 -40 -20
l-40 0 0 -105 0 -105 -30 0 -30 0 0 105 0 105 -40 0 c-33 0 -40 3 -40 20 0 19
7 20 110 20 103 0 110 -1 110 -20z m240 0 c0 -18 -7 -20 -75 -20 l-75 0 0 -30
0 -30 70 0 c63 0 70 -2 70 -20 0 -18 -7 -20 -70 -20 l-70 0 0 -35 0 -35 75 0
c68 0 75 -2 75 -20 0 -19 -7 -20 -105 -20 l-105 0 0 125 0 125 105 0 c98 0
105 -1 105 -20z m240 7 c20 -10 26 -21 28 -54 3 -35 -1 -44 -20 -54 -13 -6
-24 -13 -26 -14 -2 -2 13 -25 32 -53 20 -27 36 -52 36 -56 0 -3 -15 -6 -32 -6
-27 0 -38 7 -58 37 -62 92 -90 98 -90 18 0 -54 0 -55 -30 -55 l-30 0 0 125 0
125 83 0 c46 0 93 -6 107 -13z m186 -62 c27 -41 52 -74 57 -75 4 0 7 34 7 75
0 73 1 75 25 75 l25 0 0 -125 0 -125 -28 0 c-24 0 -36 11 -78 71 l-49 72 -3
-72 -3 -71 -29 0 -30 0 0 125 0 125 29 0 c24 0 35 -11 77 -75z m369 -52 l54
-123 -32 0 c-27 0 -35 5 -44 30 -11 28 -15 30 -63 30 -48 0 -52 -2 -63 -30 -9
-23 -17 -30 -39 -30 -15 0 -28 4 -28 9 0 5 16 47 36 93 19 45 42 98 50 116 12
29 18 33 45 30 29 -3 33 -9 84 -125z m415 2 l0 -125 -30 0 -30 0 0 125 0 125
30 0 30 0 0 -125z m457 40 l53 -80 0 83 c0 81 0 82 25 82 l25 0 0 -125 0 -125
-27 0 c-24 0 -36 12 -78 75 l-50 76 -3 -76 c-3 -75 -3 -75 -31 -75 -23 0 -27
4 -25 23 1 12 3 68 3 125 l1 103 27 -3 c22 -2 38 -19 80 -83z m352 -33 c28
-64 51 -120 51 -125 0 -4 -13 -7 -29 -7 -22 0 -31 6 -41 30 -12 28 -16 30 -64
30 -48 0 -52 -2 -63 -30 -9 -24 -17 -30 -42 -30 l-30 0 45 108 c26 59 48 115
51 125 4 12 15 17 38 17 31 0 33 -2 84 -118z m151 13 l0 -105 65 0 c58 0 65
-2 65 -20 0 -19 -7 -20 -95 -20 l-95 0 0 125 0 125 30 0 30 0 0 -105z m-3862
45 c103 -11 205 -22 227 -25 l40 -6 -9 -80 c-10 -79 -10 -80 -35 -75 -23 5
-113 15 -411 44 -57 6 -65 9 -63 27 12 129 14 135 39 135 13 0 109 -9 212 -20z
m1934 -1176 l34 -85 34 86 35 85 47 0 48 0 0 -145 0 -145 -35 0 -34 0 -3 92
-3 92 -35 -89 c-48 -121 -61 -121 -111 5 l-38 95 -1 -97 0 -98 -30 0 -30 0 0
148 0 147 44 -3 45 -4 33 -84z m-472 -59 l0 -145 -35 0 -35 0 0 145 0 145 35
0 35 0 0 -145z m270 110 c71 -68 60 -185 -23 -235 -25 -16 -50 -20 -119 -20
l-87 0 0 146 -1 146 99 -4 c95 -3 101 -5 131 -33z m600 -75 c0 -155 -15 -180
-104 -180 -57 0 -83 19 -66 49 7 14 17 20 26 17 8 -3 20 -9 28 -12 8 -3 24 4
35 15 18 18 21 33 21 121 l0 100 30 0 30 0 0 -110z m110 -35 l0 -145 -30 0
-30 0 0 145 0 145 30 0 30 0 0 -145z m370 130 c86 -45 94 -190 13 -250 -37
-26 -130 -32 -171 -11 -100 52 -104 198 -7 257 37 23 124 25 165 4z m315 -10
c36 -35 35 -97 -3 -134 l-27 -28 27 -44 c14 -24 27 -47 27 -51 1 -5 -15 -8
-34 -8 -32 0 -38 5 -63 50 -20 37 -33 50 -49 50 -21 0 -23 -5 -23 -50 0 -49
-1 -50 -30 -50 l-30 0 0 145 0 145 90 0 c83 0 93 -2 115 -25z m294 -1 c37 -31
38 -38 7 -52 -18 -8 -27 -7 -40 6 -10 10 -33 17 -57 17 -33 0 -46 -6 -65 -28
-54 -63 -17 -150 64 -150 45 0 62 8 62 28 0 9 -14 15 -37 17 -33 3 -38 7 -41
31 l-3 27 76 0 76 0 -3 -57 c-3 -53 -6 -59 -37 -80 -42 -29 -120 -31 -170 -5
-54 27 -76 65 -75 126 0 94 56 146 156 146 46 0 62 -5 87 -26z m-2219 -119 l0
-55 -735 0 -735 0 0 55 0 55 735 0 735 0 0 -55z m3860 0 l0 -55 -735 0 -735 0
0 55 0 55 735 0 735 0 0 -55z m-2510 -96 c23 -41 -38 -68 -63 -27 -8 12 -7 21
2 32 19 22 48 20 61 -5z"/>
<path d="M3607 4664 c-3 -5 -12 -56 -21 -114 -10 -58 -19 -114 -22 -126 -5
-19 0 -22 42 -28 86 -11 127 42 122 161 -3 57 -6 68 -28 84 -29 22 -85 35 -93
23z"/>
<path d="M2750 4588 c0 -18 -3 -57 -7 -87 l-6 -53 34 7 c73 14 71 9 33 85 -41
82 -54 93 -54 48z"/>
<path d="M4866 3929 c-47 -49 -86 -95 -86 -100 0 -13 17 -30 52 -53 40 -26 78
-13 132 44 51 54 70 92 61 121 -8 23 -54 79 -65 79 -4 0 -46 -41 -94 -91z"/>
<path d="M3650 3720 c0 -28 2 -30 39 -30 52 0 71 8 71 30 0 22 -19 30 -71 30
-37 0 -39 -2 -39 -30z"/>
<path d="M4076 3688 c-21 -49 -21 -48 14 -48 34 0 36 5 16 51 l-15 34 -15 -37z"/>
<path d="M5450 3231 c-51 -16 -107 -51 -125 -77 -23 -35 -14 -89 20 -123 33
-34 93 -32 163 3 87 44 106 114 48 172 -34 34 -57 40 -106 25z"/>
<path d="M3060 3250 l0 -80 43 0 c24 0 48 5 55 12 7 7 12 38 12 70 0 65 -12
78 -74 78 l-36 0 0 -80z"/>
<path d="M4265 2895 c-56 -55 -14 -165 58 -151 39 8 47 15 56 57 11 48 -4 93
-34 107 -38 17 -53 15 -80 -13z"/>
<path d="M3380 2880 c0 -28 2 -30 38 -30 46 0 78 20 69 44 -5 12 -19 16 -57
16 -49 0 -50 -1 -50 -30z"/>
<path d="M3840 2480 c-14 -14 -20 -33 -20 -65 0 -56 25 -85 73 -85 47 0 67 25
67 87 0 36 -5 55 -18 66 -25 23 -78 21 -102 -3z"/>
<path d="M2620 2469 c0 -30 1 -30 47 -27 37 2 49 7 51 22 5 24 -14 36 -60 36
-36 0 -38 -2 -38 -31z"/>
<path d="M3202 2437 c-16 -46 -16 -47 18 -47 17 0 30 2 30 5 0 9 -29 75 -32
75 -2 0 -9 -15 -16 -33z"/>
<path d="M4427 2430 l-15 -40 34 0 c19 0 34 2 34 4 0 7 -30 76 -34 76 -1 0
-10 -18 -19 -40z"/>
<path d="M2390 1244 l0 -97 48 7 c77 10 112 71 81 140 -13 27 -54 46 -100 46
l-29 0 0 -96z"/>
<path d="M3492 1315 c-77 -65 -11 -186 85 -154 47 15 69 60 54 109 -13 46 -29
59 -73 66 -27 5 -41 1 -66 -21z"/>
<path d="M3800 1300 l0 -40 45 0 c34 0 47 5 55 19 13 25 13 27 -6 45 -9 9 -32
16 -55 16 -39 0 -39 0 -39 -40z"/>
</g>
</svg>
